<svg width="216" height="216" viewBox="0 0 216 216" fill="none" xmlns="http://www.w3.org/2000/svg">
<rect width="216" height="216" fill="white"/>
<path d="M113.016 68.9766L58.9434 133.781L59.1484 133.645C76.2383 142.121 91.3001 148.16 104.334 151.76C117.368 155.406 127.645 157.229 135.164 157.229C142.684 157.229 148.221 156.818 151.775 155.998C155.33 155.178 158.566 154.289 161.482 153.332V156.613C159.568 158.801 155.831 160.555 150.271 161.877C144.712 163.199 138.126 163.882 130.516 163.928C111.694 164.019 85.3301 156.477 51.4238 141.301L50.9453 141.711C50.9453 144.855 50.763 146.975 50.3984 148.068C50.0339 149.162 49.3275 150.37 48.2793 151.691C47.2767 152.967 46.0234 153.56 44.5195 153.469C43.0156 153.378 41.8079 152.967 40.8965 152.238C38.5267 150.142 38.7773 147.362 41.6484 143.898L101.189 71.0273H63.5918C60.4017 71.0273 58.237 72.3262 57.0977 74.9238C56.4141 76.5189 55.8444 79.071 55.3887 82.5801H51.834V66.6523H113.357L113.016 68.9766ZM129.285 81.0078C129.285 76.8607 128.943 74.1491 128.26 72.873C127.576 71.6426 126.163 70.7995 124.021 70.3438L119.988 69.5234V66.6523H170.438V84.9043C170.438 87.3652 169.48 89.0514 167.566 89.9629C166.837 90.2819 166.085 90.4642 165.311 90.5098C163.351 90.5098 162.075 89.5983 161.482 87.7754C161.346 87.2741 161.255 86.7728 161.209 86.2715C161.209 84.403 162.12 82.9674 163.943 81.9648C165.766 81.0078 166.792 80.3926 167.02 80.1191C167.247 79.8457 167.361 79.5495 167.361 79.2305C166.86 76.2682 166.154 74.1491 165.242 72.873C164.285 71.597 162.895 70.9362 161.072 70.8906H138.445V105.686H154.236C155.968 105.686 156.993 105.412 157.312 104.865C157.677 104.318 158.064 103.179 158.475 101.447L159.158 98.4395H162.029V117.033H159.09C158.406 113.342 157.768 111.223 157.176 110.676C156.583 110.174 155.558 109.924 154.1 109.924H138.445V138.088C138.445 141.141 139.585 143.124 141.863 144.035C142.501 144.263 144.301 144.65 147.264 145.197V148H119.92V145.129L123.953 144.309C126.46 143.807 127.964 142.805 128.465 141.301C129.012 139.797 129.285 137.268 129.285 133.713V81.0078Z" fill="#0B3F7D"/>
</svg>
