<svg width="26" height="19" viewBox="0 0 26 19" fill="none" xmlns="http://www.w3.org/2000/svg">
<path d="M10.2618 13.1028L16.7129 9.37379L10.2618 5.64481V13.1028ZM24.6308 3.37014C24.7924 3.95435 24.9042 4.73743 24.9788 5.73182C25.0658 6.72622 25.1031 7.58388 25.1031 8.32967L25.1777 9.37379C25.1777 12.0959 24.9788 14.0971 24.6308 15.3774C24.32 16.4961 23.5991 17.2171 22.4804 17.5278C21.8962 17.6894 20.8272 17.8013 19.1865 17.8758C17.5706 17.9629 16.0914 18.0001 14.7241 18.0001L12.7478 18.0747C7.53965 18.0747 4.29544 17.8758 3.01516 17.5278C1.89647 17.2171 1.17553 16.4961 0.864787 15.3774C0.703198 14.7932 0.591329 14.0101 0.51675 13.0157C0.42974 12.0214 0.39245 11.1637 0.39245 10.4179L0.317871 9.37379C0.317871 6.65164 0.51675 4.65042 0.864787 3.37014C1.17553 2.25145 1.89647 1.53052 3.01516 1.21977C3.59937 1.05818 4.66834 0.946309 6.30909 0.87173C7.92497 0.784721 9.40413 0.747431 10.7714 0.747431L12.7478 0.672852C17.9559 0.672852 21.2001 0.87173 22.4804 1.21977C23.5991 1.53052 24.32 2.25145 24.6308 3.37014Z" fill="url(#paint0_linear_775_3915)"/>
<defs>
<linearGradient id="paint0_linear_775_3915" x1="12.7478" y1="0.672852" x2="12.7478" y2="18.0747" gradientUnits="userSpaceOnUse">
<stop stop-color="white"/>
<stop offset="1" stop-color="#D7E9FF"/>
</linearGradient>
</defs>
</svg>
