<svg width="26" height="26" viewBox="0 0 26 26" fill="none" xmlns="http://www.w3.org/2000/svg">
<path d="M14.6798 0.943848C16.0782 0.947577 16.788 0.955035 17.4007 0.972436L17.6419 0.981137C17.9203 0.991081 18.195 1.00351 18.5269 1.01843C19.8494 1.08058 20.7519 1.2894 21.5436 1.59642C22.364 1.91214 23.0551 2.33973 23.7462 3.02959C24.3785 3.65075 24.8676 4.40243 25.1794 5.23216C25.4864 6.02395 25.6952 6.92636 25.7574 8.25015C25.7723 8.58078 25.7847 8.85548 25.7947 9.13516L25.8021 9.3763C25.8208 9.98785 25.8282 10.6976 25.8307 12.096L25.832 13.0232V14.6515C25.835 15.5582 25.8254 16.4648 25.8034 17.3712L25.7959 17.6124C25.786 17.892 25.7735 18.1667 25.7586 18.4974C25.6965 19.8211 25.4852 20.7223 25.1794 21.5153C24.8676 22.3451 24.3785 23.0968 23.7462 23.7179C23.1251 24.3502 22.3734 24.8393 21.5436 25.1511C20.7519 25.4581 19.8494 25.6669 18.5269 25.7291L17.6419 25.7664L17.4007 25.7738C16.788 25.7912 16.0782 25.7999 14.6798 25.8024L13.7526 25.8037H12.1255C11.2184 25.8069 10.3114 25.7973 9.40459 25.7751L9.16345 25.7676C8.86838 25.7564 8.57337 25.7436 8.27844 25.7291C6.9559 25.6669 6.05349 25.4581 5.26046 25.1511C4.43117 24.8392 3.67993 24.3501 3.05912 23.7179C2.42637 23.0969 1.93684 22.3452 1.62471 21.5153C1.31769 20.7236 1.10887 19.8211 1.04672 18.4974L1.00943 17.6124L1.00322 17.3712C0.980304 16.4648 0.969945 15.5582 0.972143 14.6515V12.096C0.968702 11.1893 0.977818 10.2827 0.999488 9.3763L1.00819 9.13516C1.01813 8.85548 1.03056 8.58078 1.04548 8.25015C1.10763 6.92636 1.31645 6.02519 1.62347 5.23216C1.93632 4.40209 2.42672 3.65038 3.06037 3.02959C3.68081 2.39759 4.43162 1.9085 5.26046 1.59642C6.05349 1.2894 6.95466 1.08058 8.27844 1.01843C8.60908 1.00351 8.88502 0.991081 9.16345 0.981137L9.40459 0.973679C10.311 0.951595 11.2176 0.942064 12.1243 0.945091L14.6798 0.943848ZM13.402 7.1588C11.7537 7.1588 10.1729 7.81359 9.00741 8.97912C7.84188 10.1446 7.1871 11.7254 7.1871 13.3738C7.1871 15.0221 7.84188 16.6029 9.00741 17.7684C10.1729 18.9339 11.7537 19.5887 13.402 19.5887C15.0504 19.5887 16.6312 18.9339 17.7967 17.7684C18.9622 16.6029 19.617 15.0221 19.617 13.3738C19.617 11.7254 18.9622 10.1446 17.7967 8.97912C16.6312 7.81359 15.0504 7.1588 13.402 7.1588ZM13.402 9.64478C13.8917 9.6447 14.3767 9.74107 14.8291 9.9284C15.2816 10.1157 15.6927 10.3903 16.039 10.7365C16.3853 11.0827 16.6601 11.4938 16.8476 11.9462C17.035 12.3986 17.1316 12.8834 17.1316 13.3731C17.1317 13.8628 17.0354 14.3477 16.848 14.8002C16.6607 15.2526 16.3861 15.6638 16.0399 16.0101C15.6937 16.3564 15.2826 16.6312 14.8303 16.8186C14.3779 17.0061 13.893 17.1026 13.4033 17.1027C12.4143 17.1027 11.4658 16.7099 10.7665 16.0105C10.0672 15.3112 9.67432 14.3627 9.67432 13.3738C9.67432 12.3848 10.0672 11.4363 10.7665 10.737C11.4658 10.0377 12.4143 9.64478 13.4033 9.64478M19.929 5.29431C19.5169 5.29431 19.1217 5.45801 18.8303 5.74939C18.539 6.04078 18.3753 6.43598 18.3753 6.84805C18.3753 7.26013 18.539 7.65533 18.8303 7.94671C19.1217 8.23809 19.5169 8.40179 19.929 8.40179C20.3411 8.40179 20.7363 8.23809 21.0277 7.94671C21.319 7.65533 21.4827 7.26013 21.4827 6.84805C21.4827 6.43598 21.319 6.04078 21.0277 5.74939C20.7363 5.45801 20.3411 5.29431 19.929 5.29431Z" fill="url(#paint0_linear_775_3927)"/>
<defs>
<linearGradient id="paint0_linear_775_3927" x1="13.402" y1="0.943848" x2="13.402" y2="25.8043" gradientUnits="userSpaceOnUse">
<stop stop-color="white"/>
<stop offset="1" stop-color="#D7E9FF"/>
</linearGradient>
</defs>
</svg>
