<svg width="23" height="23" viewBox="0 0 23 23" fill="none" xmlns="http://www.w3.org/2000/svg">
<path d="M20.1125 0.186523C20.7718 0.186523 21.4041 0.448438 21.8703 0.91465C22.3365 1.38086 22.5984 2.01318 22.5984 2.6725V20.0744C22.5984 20.7337 22.3365 21.366 21.8703 21.8322C21.4041 22.2984 20.7718 22.5604 20.1125 22.5604H2.71059C2.05127 22.5604 1.41895 22.2984 0.952736 21.8322C0.486524 21.366 0.224609 20.7337 0.224609 20.0744V2.6725C0.224609 2.01318 0.486524 1.38086 0.952736 0.91465C1.41895 0.448438 2.05127 0.186523 2.71059 0.186523H20.1125ZM19.491 19.4529V12.865C19.491 11.7903 19.064 10.7597 18.3041 9.99973C17.5442 9.2398 16.5135 8.81288 15.4388 8.81288C14.3823 8.81288 13.1517 9.45923 12.5551 10.4288V9.04905H9.08713V19.4529H12.5551V13.3249C12.5551 12.3678 13.3257 11.5847 14.2828 11.5847C14.7444 11.5847 15.187 11.7681 15.5133 12.0944C15.8397 12.4208 16.023 12.8634 16.023 13.3249V19.4529H19.491ZM5.04741 7.09755C5.60124 7.09755 6.13239 6.87754 6.52401 6.48593C6.91563 6.09431 7.13564 5.56316 7.13564 5.00933C7.13564 3.85335 6.20339 2.90867 5.04741 2.90867C4.49028 2.90867 3.95598 3.12999 3.56203 3.52394C3.16808 3.91789 2.94676 4.4522 2.94676 5.00933C2.94676 6.16531 3.89143 7.09755 5.04741 7.09755ZM6.77517 19.4529V9.04905H3.33209V19.4529H6.77517Z" fill="url(#paint0_linear_775_3918)"/>
<defs>
<linearGradient id="paint0_linear_775_3918" x1="11.4115" y1="0.186523" x2="11.4115" y2="22.5604" gradientUnits="userSpaceOnUse">
<stop stop-color="white"/>
<stop offset="1" stop-color="#D7E9FF"/>
</linearGradient>
</defs>
</svg>
