<svg width="22" height="22" viewBox="0 0 22 22" fill="none" xmlns="http://www.w3.org/2000/svg">
<path d="M13.1425 14.8258C13.1014 14.7851 13.0458 14.7622 12.988 14.7622C12.9301 14.7622 12.8746 14.7851 12.8335 14.8258L9.65615 18.0031C8.18506 19.4742 5.70225 19.6301 4.07803 18.0031C2.45107 16.3762 2.60693 13.8961 4.07803 12.425L7.25537 9.24766C7.34014 9.16289 7.34014 9.02344 7.25537 8.93867L6.16709 7.85039C6.12598 7.80968 6.07046 7.78684 6.0126 7.78684C5.95474 7.78684 5.89922 7.80968 5.85811 7.85039L2.68076 11.0277C0.36748 13.341 0.36748 17.0844 2.68076 19.3949C4.99404 21.7055 8.7374 21.7082 11.0479 19.3949L14.2253 16.2176C14.3101 16.1328 14.3101 15.9934 14.2253 15.9086L13.1425 14.8258ZM20.2136 1.86484C17.9003 -0.448438 14.1569 -0.448438 11.8464 1.86484L8.66631 5.04219C8.6256 5.0833 8.60276 5.13882 8.60276 5.19668C8.60276 5.25454 8.6256 5.31006 8.66631 5.35117L9.75186 6.43672C9.83662 6.52148 9.97607 6.52148 10.0608 6.43672L13.2382 3.25937C14.7093 1.78828 17.1921 1.63242 18.8163 3.25937C20.4433 4.88633 20.2874 7.36641 18.8163 8.8375L15.639 12.0148C15.5983 12.056 15.5754 12.1115 15.5754 12.1693C15.5754 12.2272 15.5983 12.2827 15.639 12.3238L16.7272 13.4121C16.812 13.4969 16.9515 13.4969 17.0362 13.4121L20.2136 10.2348C22.5241 7.92148 22.5241 4.17812 20.2136 1.86484ZM14.1296 6.81133C14.0885 6.77062 14.033 6.74778 13.9751 6.74778C13.9172 6.74778 13.8617 6.77062 13.8206 6.81133L7.62725 13.002C7.58654 13.0431 7.5637 13.0986 7.5637 13.1564C7.5637 13.2143 7.58654 13.2698 7.62725 13.3109L8.71006 14.3937C8.79482 14.4785 8.93428 14.4785 9.01904 14.3937L15.2097 8.20313C15.2944 8.11836 15.2944 7.97891 15.2097 7.89414L14.1296 6.81133Z" fill="url(#paint0_linear_775_3956)"/>
<defs>
<linearGradient id="paint0_linear_775_3956" x1="0.945801" y1="10.6294" x2="21.9465" y2="10.6294" gradientUnits="userSpaceOnUse">
<stop stop-color="#0B3F7D"/>
<stop offset="1" stop-color="#1472E3"/>
</linearGradient>
</defs>
</svg>
