<svg width="26" height="26" viewBox="0 0 26 26" fill="none" xmlns="http://www.w3.org/2000/svg">
<path d="M12.7397 0.943848C19.6048 0.943848 25.1696 6.50872 25.1696 13.3738C25.1696 20.2388 19.6048 25.8037 12.7397 25.8037C10.5431 25.8074 8.38502 25.2261 6.4875 24.1194L0.314806 25.8037L1.99533 19.6285C0.887773 17.7304 0.305984 15.5714 0.309833 13.3738C0.309833 6.50872 5.8747 0.943848 12.7397 0.943848ZM8.50363 7.5317L8.25503 7.54164C8.0943 7.55272 7.93726 7.59493 7.79264 7.66594C7.65787 7.7424 7.53479 7.83784 7.4272 7.94934C7.27804 8.0898 7.19352 8.21161 7.10278 8.3297C6.64302 8.92746 6.39548 9.66133 6.39925 10.4154C6.40173 11.0245 6.56083 11.6174 6.80943 12.1718C7.31782 13.293 8.15435 14.48 9.25812 15.5801C9.52412 15.8448 9.78515 16.1108 10.0661 16.3582C11.4376 17.5656 13.072 18.4364 14.8392 18.9013L15.5452 19.0095C15.7751 19.0219 16.0051 19.0045 16.2363 18.9933C16.5982 18.9742 16.9516 18.8762 17.2717 18.7062C17.4343 18.6221 17.5932 18.5308 17.7478 18.4327C17.7478 18.4327 17.8004 18.3971 17.9031 18.3209C18.0709 18.1966 18.1741 18.1083 18.3133 17.9629C18.4177 17.8552 18.5047 17.73 18.5743 17.5875C18.6713 17.3849 18.7682 16.9983 18.808 16.6764C18.8379 16.4303 18.8292 16.296 18.8254 16.2127C18.8205 16.0797 18.7098 15.9418 18.5893 15.8834L17.8658 15.5589C17.8658 15.5589 16.7844 15.0878 16.1232 14.787C16.0539 14.7569 15.9798 14.7396 15.9044 14.7361C15.8193 14.7272 15.7334 14.7367 15.6523 14.7639C15.5712 14.7911 15.497 14.8355 15.4345 14.8939C15.4283 14.8914 15.345 14.9623 14.4464 16.0512C14.3948 16.1205 14.3237 16.1729 14.2423 16.2016C14.1608 16.2304 14.0726 16.2343 13.9889 16.2127C13.9079 16.1912 13.8286 16.1637 13.7515 16.1307C13.5974 16.0661 13.544 16.0412 13.4383 15.9965C12.7247 15.6856 12.0641 15.2649 11.4806 14.7497C11.324 14.613 11.1785 14.4639 11.0294 14.3197C10.5404 13.8513 10.1142 13.3215 9.76153 12.7436L9.6882 12.6255C9.63632 12.5457 9.59378 12.4602 9.56141 12.3707C9.51418 12.1879 9.63724 12.0413 9.63724 12.0413C9.63724 12.0413 9.93928 11.7106 10.0797 11.5316C10.2165 11.3576 10.3321 11.1886 10.4066 11.068C10.5533 10.8318 10.5993 10.5895 10.5222 10.4018C10.1742 9.55156 9.81457 8.70591 9.44333 7.86482C9.36999 7.69826 9.15247 7.57893 8.95483 7.55532C8.88771 7.54703 8.82059 7.5404 8.75347 7.53543C8.58657 7.52585 8.41922 7.52752 8.25254 7.5404L8.50363 7.5317Z" fill="url(#paint0_linear_775_3924)"/>
<defs>
<linearGradient id="paint0_linear_775_3924" x1="12.7397" y1="0.943848" x2="12.7397" y2="25.8037" gradientUnits="userSpaceOnUse">
<stop stop-color="white"/>
<stop offset="1" stop-color="#D7E9FF"/>
</linearGradient>
</defs>
</svg>
