<svg width="26" height="26" viewBox="0 0 26 26" fill="none" xmlns="http://www.w3.org/2000/svg">
<path d="M24.6341 9.84722C24.3808 9.84391 24.1388 9.74191 23.9595 9.5629C23.7803 9.3839 23.678 9.14202 23.6743 8.88873V4.94216C23.6835 4.54228 23.6111 4.14472 23.4614 3.77376C23.3118 3.4028 23.0882 3.06624 22.8041 2.78461C22.2419 2.22865 21.4833 1.91649 20.6926 1.9157H16.7896C16.5355 1.9157 16.2918 1.81493 16.1118 1.63549C15.9319 1.45605 15.8305 1.21259 15.8298 0.958488C15.8302 0.704164 15.9314 0.460372 16.1114 0.280657C16.2913 0.100942 16.5353 -2.26066e-07 16.7896 0H20.731C22.0278 0.0326775 23.2597 0.574155 24.1606 1.50748C24.6164 1.96087 24.9777 2.50015 25.2237 3.0941C25.4698 3.68804 25.5956 4.32488 25.5939 4.96776V8.91432C25.5869 9.16418 25.4827 9.40146 25.3034 9.57568C25.1242 9.7499 24.8841 9.84732 24.6341 9.84722ZM20.6926 25.5938H16.7896C16.5355 25.5938 16.2918 25.493 16.1118 25.3136C15.9319 25.1342 15.8305 24.8907 15.8298 24.6366C15.8302 24.3823 15.9314 24.1385 16.1114 23.9588C16.2913 23.7791 16.5353 23.6781 16.7896 23.6781H20.731C21.3212 23.6734 21.8966 23.4929 22.3837 23.1597C22.8708 22.8264 23.2475 22.3556 23.4657 21.8072C23.6105 21.4439 23.6814 21.0554 23.6743 20.6644V16.7563C23.6747 16.5019 23.7759 16.2582 23.9559 16.0784C24.1358 15.8987 24.3798 15.7978 24.6341 15.7978C24.8884 15.7978 25.1323 15.8987 25.3123 16.0784C25.4923 16.2582 25.5935 16.5019 25.5939 16.7563V20.6644C25.5963 21.6334 25.3099 22.5811 24.7713 23.3866C24.2327 24.1921 23.4663 24.8189 22.57 25.1869C21.9749 25.4313 21.3363 25.558 20.6926 25.5554V25.5938ZM8.85551 25.5938H4.91406C4.26693 25.5934 3.62623 25.4654 3.02855 25.2173C2.43087 24.9692 1.88793 24.6057 1.43074 24.1478C0.974542 23.6903 0.613288 23.1472 0.367756 22.5496C0.122223 21.952 -0.00274293 21.3118 4.56609e-05 20.6657V16.7575C0.000384761 16.5032 0.101653 16.2594 0.281607 16.0797C0.461562 15.9 0.705489 15.7991 0.959814 15.7991C1.21414 15.7991 1.45807 15.9 1.63802 16.0797C1.81797 16.2594 1.91924 16.5032 1.91958 16.7575V20.6657C1.92263 21.4572 2.23971 22.2151 2.80117 22.773C3.36264 23.3308 4.12257 23.643 4.91406 23.641H8.85551C9.10983 23.641 9.35376 23.7419 9.53371 23.9217C9.71367 24.1014 9.81494 24.3452 9.81527 24.5995C9.81544 24.7255 9.79072 24.8502 9.74251 24.9666C9.69431 25.083 9.62358 25.1887 9.53439 25.2776C9.4452 25.3666 9.3393 25.437 9.2228 25.4849C9.10629 25.5328 8.98147 25.5572 8.85551 25.5567V25.5938ZM0.959814 9.84722C0.706516 9.84391 0.464504 9.74191 0.285261 9.5629C0.106018 9.3839 0.00369053 9.14202 4.56609e-05 8.88873V4.94216C0.00344168 3.65251 0.518996 2.41702 1.4333 1.50748C2.35617 0.593084 3.60211 0.0790741 4.90126 0.0767814H8.84271C9.09703 0.0767811 9.34096 0.177724 9.52092 0.357438C9.70087 0.537153 9.80214 0.780945 9.80248 1.03527C9.8018 1.28937 9.70038 1.53284 9.52046 1.71227C9.34055 1.89171 9.09681 1.99248 8.84271 1.99248H4.90126C4.10967 1.9901 3.34954 2.30219 2.788 2.86013C2.22647 3.41806 1.9095 4.17617 1.90678 4.96776V8.91432C1.89987 9.16199 1.79745 9.39738 1.62095 9.57125C1.44445 9.74513 1.20755 9.84401 0.959814 9.84722Z" fill="url(#paint0_linear_850_3532)"/>
<path d="M11.3838 6.99249V10.3133C11.3925 10.7177 11.279 11.1154 11.0579 11.4543C10.8369 11.7931 10.5187 12.0573 10.1451 12.2123C9.89689 12.3157 9.63076 12.3692 9.36191 12.3697H6.03471C5.49794 12.3698 4.98291 12.1577 4.6018 11.7797C4.2207 11.4017 4.00439 10.8884 4 10.3517V7.03088C3.99966 6.76376 4.05209 6.49921 4.15427 6.25241C4.25645 6.00561 4.40638 5.78143 4.59543 5.59272C4.78449 5.40402 5.00896 5.25452 5.25595 5.15281C5.50294 5.05109 5.76759 4.99917 6.03471 5.00001H9.36191C9.89209 5.00323 10.4001 5.21327 10.7777 5.58541C11.1554 5.95756 11.3728 6.46241 11.3838 6.99249ZM11.3838 16.5838V19.9046C11.3845 20.4418 11.172 20.9574 10.7929 21.3382C10.4138 21.7189 9.89918 21.9337 9.36191 21.9354H6.03471C5.49574 21.9354 4.97878 21.7216 4.59731 21.3408C4.21584 20.9601 4.00102 20.4435 4 19.9046V16.5838C4.00271 16.0465 4.21848 15.5322 4.59995 15.1539C4.98143 14.7755 5.49743 14.564 6.03471 14.5657H9.36191C9.89748 14.5657 10.4112 14.7782 10.7903 15.1565C11.1693 15.5349 11.3828 16.0482 11.3838 16.5838ZM21.0327 6.99249V10.3133C21.0403 10.8463 20.8378 11.3608 20.469 11.7456C20.1002 12.1305 19.5948 12.3547 19.062 12.3697H15.7476C15.2108 12.3698 14.6958 12.1577 14.3147 11.7797C13.9335 11.4017 13.7172 10.8884 13.7129 10.3517V7.03088C13.7125 6.76376 13.7649 6.49921 13.8671 6.25241C13.9693 6.00561 14.1192 5.78143 14.3083 5.59272C14.4973 5.40402 14.7218 5.25452 14.9688 5.15281C15.2158 5.05109 15.4804 4.99917 15.7476 5.00001H19.062C19.5832 5.0163 20.0783 5.23211 20.445 5.60289C20.8118 5.97366 21.0221 6.4711 21.0327 6.99249ZM21.0327 16.6094V19.9302C21.0336 20.4587 20.8281 20.9667 20.46 21.3461C20.0919 21.7254 19.5903 21.946 19.062 21.961H15.7476C15.2086 21.961 14.6916 21.7472 14.3102 21.3664C13.9287 20.9857 13.7139 20.4691 13.7129 19.9302V16.6094C13.7159 16.0722 13.9318 15.5581 14.3132 15.1799C14.6946 14.8016 15.2104 14.5899 15.7476 14.5913H19.062C19.5876 14.6078 20.0864 14.8272 20.4538 15.2034C20.8212 15.5796 21.0286 16.0835 21.0327 16.6094Z" fill="url(#paint1_linear_850_3532)"/>
<defs>
<linearGradient id="paint0_linear_850_3532" x1="0" y1="12.7969" x2="25.5939" y2="12.7969" gradientUnits="userSpaceOnUse">
<stop stop-color="#0B3F7D"/>
<stop offset="1" stop-color="#1472E3"/>
</linearGradient>
<linearGradient id="paint1_linear_850_3532" x1="4" y1="13.4805" x2="21.0329" y2="13.4805" gradientUnits="userSpaceOnUse">
<stop stop-color="#0B3F7D"/>
<stop offset="1" stop-color="#1472E3"/>
</linearGradient>
</defs>
</svg>
