<svg width="25" height="25" viewBox="0 0 25 25" fill="none" xmlns="http://www.w3.org/2000/svg">
<path d="M24.6903 3.37488C25.2792 1.746 23.7008 0.167561 22.0719 0.757774L2.16412 7.95755C0.529791 8.54913 0.332144 10.7791 1.83562 11.6501L8.19029 15.3291L13.8648 9.65458C14.1219 9.40629 14.4662 9.2689 14.8236 9.272C15.181 9.27511 15.5228 9.41846 15.7756 9.67119C16.0283 9.92391 16.1716 10.2658 16.1748 10.6232C16.1779 10.9806 16.0405 11.3249 15.7922 11.582L10.1177 17.2565L13.798 23.6111C14.6676 25.1146 16.8976 24.9156 17.4892 23.2826L24.6903 3.37488Z" fill="url(#paint0_linear_775_3951)"/>
<defs>
<linearGradient id="paint0_linear_775_3951" x1="0.814941" y1="12.6313" x2="24.8163" y2="12.6313" gradientUnits="userSpaceOnUse">
<stop stop-color="#0B3F7D"/>
<stop offset="1" stop-color="#1472E3"/>
</linearGradient>
</defs>
</svg>
