<svg width="24" height="25" viewBox="0 0 24 25" fill="none" xmlns="http://www.w3.org/2000/svg">
<path d="M11 17.3203H13V13.3203H17V11.3203H13V7.32031H11V11.3203H7V13.3203H11V17.3203ZM5 21.3203C4.45 21.3203 3.97933 21.1246 3.588 20.7333C3.19667 20.342 3.00067 19.871 3 19.3203V5.32031C3 4.77031 3.196 4.29965 3.588 3.90831C3.98 3.51698 4.45067 3.32098 5 3.32031H19C19.55 3.32031 20.021 3.51631 20.413 3.90831C20.805 4.30031 21.0007 4.77098 21 5.32031V19.3203C21 19.8703 20.8043 20.3413 20.413 20.7333C20.0217 21.1253 19.5507 21.321 19 21.3203H5ZM5 19.3203H19V5.32031H5V19.3203Z" fill="white"/>
</svg>
