<svg width="24" height="25" viewBox="0 0 24 25" fill="none" xmlns="http://www.w3.org/2000/svg">
<path d="M12 2.32031C17.523 2.32031 22 6.79731 22 12.3203C22 17.8433 17.523 22.3203 12 22.3203C6.477 22.3203 2 17.8433 2 12.3203C2 6.79731 6.477 2.32031 12 2.32031ZM12 4.32031C9.87827 4.32031 7.84344 5.16317 6.34315 6.66346C4.84285 8.16375 4 10.1986 4 12.3203C4 14.442 4.84285 16.4769 6.34315 17.9772C7.84344 19.4775 9.87827 20.3203 12 20.3203C14.1217 20.3203 16.1566 19.4775 17.6569 17.9772C19.1571 16.4769 20 14.442 20 12.3203C20 10.1986 19.1571 8.16375 17.6569 6.66346C16.1566 5.16317 14.1217 4.32031 12 4.32031ZM12 6.32031C12.2449 6.32034 12.4813 6.41027 12.6644 6.57303C12.8474 6.73579 12.9643 6.96006 12.993 7.20331L13 7.32031V11.9063L15.707 14.6133C15.8863 14.7933 15.9905 15.0347 15.9982 15.2887C16.006 15.5426 15.9168 15.79 15.7488 15.9806C15.5807 16.1712 15.3464 16.2906 15.0935 16.3147C14.8406 16.3388 14.588 16.2657 14.387 16.1103L14.293 16.0273L11.293 13.0273C11.1376 12.8718 11.0378 12.6693 11.009 12.4513L11 12.3203V7.32031C11 7.0551 11.1054 6.80074 11.2929 6.61321C11.4804 6.42567 11.7348 6.32031 12 6.32031Z" fill="white"/>
</svg>
