<svg width="21" height="20" viewBox="0 0 21 20" fill="none" xmlns="http://www.w3.org/2000/svg">
<g clip-path="url(#clip0_258_6947)">
<path d="M18 3.33333H15.4167C15.2232 2.39284 14.7115 1.54779 13.9677 0.940598C13.2239 0.333408 12.2935 0.0012121 11.3333 0L9.66666 0C8.70649 0.0012121 7.77609 0.333408 7.03228 0.940598C6.28847 1.54779 5.77674 2.39284 5.58332 3.33333H2.99999C2.77898 3.33333 2.56701 3.42113 2.41073 3.57741C2.25445 3.73369 2.16666 3.94565 2.16666 4.16667C2.16666 4.38768 2.25445 4.59964 2.41073 4.75592C2.56701 4.9122 2.77898 5 2.99999 5H3.83332V15.8333C3.83465 16.938 4.27406 17.997 5.05517 18.7782C5.83629 19.5593 6.89533 19.9987 7.99999 20H13C14.1047 19.9987 15.1637 19.5593 15.9448 18.7782C16.7259 17.997 17.1653 16.938 17.1667 15.8333V5H18C18.221 5 18.433 4.9122 18.5892 4.75592C18.7455 4.59964 18.8333 4.38768 18.8333 4.16667C18.8333 3.94565 18.7455 3.73369 18.5892 3.57741C18.433 3.42113 18.221 3.33333 18 3.33333ZM9.66666 1.66667H11.3333C11.8502 1.6673 12.3543 1.82781 12.7763 2.1262C13.1984 2.42459 13.5178 2.84624 13.6908 3.33333H7.30916C7.48214 2.84624 7.80157 2.42459 8.22365 2.1262C8.64572 1.82781 9.14976 1.6673 9.66666 1.66667ZM15.5 15.8333C15.5 16.4964 15.2366 17.1323 14.7678 17.6011C14.2989 18.0699 13.663 18.3333 13 18.3333H7.99999C7.33695 18.3333 6.70106 18.0699 6.23222 17.6011C5.76338 17.1323 5.49999 16.4964 5.49999 15.8333V5H15.5V15.8333Z" fill="white"/>
<path d="M8.83333 14.9999C9.05435 14.9999 9.26631 14.9121 9.42259 14.7558C9.57887 14.5996 9.66667 14.3876 9.66667 14.1666V9.16659C9.66667 8.94557 9.57887 8.73361 9.42259 8.57733C9.26631 8.42105 9.05435 8.33325 8.83333 8.33325C8.61232 8.33325 8.40036 8.42105 8.24408 8.57733C8.0878 8.73361 8 8.94557 8 9.16659V14.1666C8 14.3876 8.0878 14.5996 8.24408 14.7558C8.40036 14.9121 8.61232 14.9999 8.83333 14.9999Z" fill="white"/>
<path d="M12.1667 14.9999C12.3877 14.9999 12.5997 14.9121 12.7559 14.7558C12.9122 14.5996 13 14.3876 13 14.1666V9.16659C13 8.94557 12.9122 8.73361 12.7559 8.57733C12.5997 8.42105 12.3877 8.33325 12.1667 8.33325C11.9457 8.33325 11.7337 8.42105 11.5774 8.57733C11.4211 8.73361 11.3333 8.94557 11.3333 9.16659V14.1666C11.3333 14.3876 11.4211 14.5996 11.5774 14.7558C11.7337 14.9121 11.9457 14.9999 12.1667 14.9999Z" fill="white"/>
</g>
<defs>
<clipPath id="clip0_258_6947">
<rect width="20" height="20" fill="white" transform="translate(0.5)"/>
</clipPath>
</defs>
</svg>
