<svg width="24" height="25" viewBox="0 0 24 25" fill="none" xmlns="http://www.w3.org/2000/svg">
<g clip-path="url(#clip0_249_6408)">
<path d="M10.5 3.32031H7.5C6.81056 3.32031 6.12787 3.45611 5.49091 3.71994C4.85395 3.98378 4.2752 4.37049 3.78769 4.858C3.30018 5.34551 2.91347 5.92426 2.64963 6.56122C2.3858 7.19818 2.25 7.88087 2.25 8.57031C2.25 9.25975 2.3858 9.94244 2.64963 10.5794C2.91347 11.2164 3.30018 11.7951 3.78769 12.2826C4.2752 12.7701 4.85395 13.1568 5.49091 13.4207C6.12787 13.6845 6.81056 13.8203 7.5 13.8203H10.5V18.3203H3.75V21.3203H10.5V24.3203H13.5V21.3203H16.5C17.8924 21.3203 19.2277 20.7672 20.2123 19.7826C21.1969 18.7981 21.75 17.4627 21.75 16.0703C21.75 14.6779 21.1969 13.3426 20.2123 12.358C19.2277 11.3734 17.8924 10.8203 16.5 10.8203H13.5V6.32031H20.25V3.32031H13.5V0.320312H10.5V3.32031ZM13.5 13.8203H16.5C17.0967 13.8203 17.669 14.0574 18.091 14.4793C18.5129 14.9013 18.75 15.4736 18.75 16.0703C18.75 16.667 18.5129 17.2393 18.091 17.6613C17.669 18.0833 17.0967 18.3203 16.5 18.3203H13.5V13.8203ZM10.5 10.8203H7.5C7.20453 10.8203 6.91194 10.7621 6.63896 10.649C6.36598 10.536 6.11794 10.3702 5.90901 10.1613C5.70008 9.95237 5.53434 9.70433 5.42127 9.43135C5.3082 9.15837 5.25 8.86579 5.25 8.57031C5.25 8.27484 5.3082 7.98226 5.42127 7.70927C5.53434 7.43629 5.70008 7.18825 5.90901 6.97932C6.11794 6.77039 6.36598 6.60466 6.63896 6.49158C6.91194 6.37851 7.20453 6.32031 7.5 6.32031H10.5V10.8203Z" fill="white"/>
</g>
<defs>
<clipPath id="clip0_249_6408">
<rect width="24" height="24" fill="white" transform="translate(0 0.320312)"/>
</clipPath>
</defs>
</svg>
