<svg width="20" height="19" viewBox="0 0 20 19" fill="none" xmlns="http://www.w3.org/2000/svg">
<path d="M19.8598 6.84534C19.6893 6.32733 19.3487 5.87544 18.8883 5.5565C18.4279 5.23756 17.8723 5.06851 17.3035 5.07434H13.662L12.5559 1.78374C12.382 1.26577 12.0402 0.813919 11.5799 0.493333C11.1196 0.172748 10.5645 0 9.99465 0C9.42482 0 8.86972 0.172748 8.40939 0.493333C7.94905 0.813919 7.60728 1.26577 7.43335 1.78374L6.32732 5.07434H2.68582C2.11884 5.07511 1.56661 5.24689 1.10802 5.56515C0.649428 5.8834 0.307926 6.33185 0.132295 6.84645C-0.0433363 7.36104 -0.0441136 7.91545 0.130074 8.43048C0.304262 8.94552 0.644504 9.39484 1.1022 9.71427L4.06607 11.7828L2.9392 15.114C2.7571 15.6307 2.75479 16.1896 2.93263 16.7077C3.11046 17.2257 3.45892 17.6749 3.92605 17.9885C4.38517 18.3121 4.94156 18.4855 5.5123 18.4828C6.08303 18.4801 6.63757 18.3014 7.09329 17.9734L9.99465 15.9351L12.8968 17.971C13.3551 18.2928 13.9085 18.4676 14.4774 18.4702C15.0464 18.4728 15.6015 18.3032 16.0631 17.9857C16.5246 17.6682 16.8688 17.2192 17.0462 16.7032C17.2235 16.1872 17.2249 15.6308 17.0501 15.114L15.9232 11.7828L18.8904 9.71427C19.3534 9.39885 19.6976 8.94954 19.8722 8.43283C20.0468 7.91613 20.0424 7.3595 19.8598 6.84534ZM17.9069 8.42938L14.453 10.8392C14.3111 10.938 14.2055 11.0771 14.1513 11.2365C14.0972 11.396 14.0971 11.5677 14.1512 11.7271L15.464 15.6017C15.5304 15.7982 15.5298 16.0098 15.4624 16.206C15.3949 16.4022 15.264 16.5729 15.0884 16.6936C14.9129 16.8143 14.7018 16.8787 14.4855 16.8776C14.2691 16.8766 14.0587 16.8101 13.8845 16.6877L10.4881 14.3009C10.345 14.2006 10.1721 14.1465 9.99465 14.1465C9.81715 14.1465 9.64428 14.2006 9.50122 14.3009L6.10478 16.6877C5.93065 16.8117 5.71965 16.8796 5.50239 16.8815C5.28512 16.8834 5.07287 16.8192 4.89641 16.6982C4.71996 16.5771 4.58846 16.4056 4.52099 16.2085C4.45351 16.0113 4.45357 15.7988 4.52116 15.6017L5.83806 11.7271C5.89217 11.5677 5.89213 11.396 5.83795 11.2365C5.78376 11.0771 5.67821 10.938 5.53634 10.8392L2.08238 8.42938C1.90844 8.30781 1.77919 8.13687 1.7131 7.941C1.64701 7.74512 1.64746 7.53431 1.71438 7.33869C1.78131 7.14307 1.91129 6.97264 2.08575 6.85175C2.26021 6.73085 2.47024 6.66568 2.68582 6.66554H6.93659C7.11306 6.66553 7.28496 6.61207 7.42756 6.51284C7.57015 6.41362 7.67607 6.27375 7.73007 6.11339L9.02197 2.26985C9.08829 2.07317 9.21827 1.90164 9.39321 1.77996C9.56815 1.65828 9.77902 1.59272 9.99548 1.59272C10.2119 1.59272 10.4228 1.65828 10.5978 1.77996C10.7727 1.90164 10.9027 2.07317 10.969 2.26985L12.2609 6.11339C12.3149 6.27375 12.4208 6.41362 12.5634 6.51284C12.706 6.61207 12.8779 6.66553 13.0544 6.66554H17.3051C17.5207 6.66568 17.7308 6.73085 17.9052 6.85175C18.0797 6.97264 18.2097 7.14307 18.2766 7.33869C18.3435 7.53431 18.344 7.74512 18.2779 7.941C18.2118 8.13687 18.0825 8.30781 17.9086 8.42938H17.9069Z" fill="#3B3B3B"/>
</svg>
