<svg width="24" height="25" viewBox="0 0 24 25" fill="none" xmlns="http://www.w3.org/2000/svg">
<path d="M10.66 10.9803C10.3032 11.3352 10.1018 11.8171 10.1 12.3203C10.1 12.8243 10.3002 13.3075 10.6565 13.6638C11.0128 14.0202 11.4961 14.2203 12 14.2203C12.5032 14.2185 12.9851 14.0171 13.34 13.6603" stroke="white" stroke-width="1.5" stroke-linecap="round" stroke-linejoin="round"/>
<path d="M12 6.62036C10.8726 6.62036 9.7706 6.95466 8.83324 7.58098C7.89588 8.20731 7.1653 9.09753 6.73388 10.1391C6.30246 11.1806 6.18958 12.3267 6.40951 13.4324C6.62945 14.5381 7.17232 15.5537 7.96948 16.3509C8.76664 17.148 9.78228 17.6909 10.888 17.9108C11.9937 18.1308 13.1397 18.0179 14.1813 17.5865C15.2228 17.1551 16.113 16.4245 16.7394 15.4871C17.3657 14.5498 17.7 13.4477 17.7 12.3204" stroke="white" stroke-width="1.5" stroke-linecap="round" stroke-linejoin="round"/>
<path d="M12 2.82031C10.1211 2.82031 8.28435 3.37748 6.72209 4.42135C5.15982 5.46522 3.94218 6.94892 3.22315 8.68482C2.50412 10.4207 2.31598 12.3309 2.68254 14.1737C3.0491 16.0165 3.95389 17.7092 5.28249 19.0378C6.61109 20.3664 8.30383 21.2712 10.1466 21.6378C11.9895 22.0043 13.8996 21.8162 15.6355 21.0972C17.3714 20.3781 18.8551 19.1605 19.899 17.5982C20.9428 16.036 21.5 14.1992 21.5 12.3203M15.525 8.79631L12.95 11.3703" stroke="white" stroke-width="1.5" stroke-linecap="round" stroke-linejoin="round"/>
<path d="M20.94 6.16429L17.7 6.62029L18.156 3.38029C18.1593 3.34265 18.1514 3.30488 18.1331 3.27178C18.1149 3.23869 18.0872 3.21179 18.0536 3.1945C18.02 3.17722 17.982 3.17035 17.9445 3.17476C17.907 3.17918 17.8716 3.19468 17.843 3.21929L15.695 5.35629C15.4743 5.57851 15.3121 5.85181 15.2226 6.15189C15.1331 6.45197 15.1191 6.76952 15.182 7.07629L15.524 8.79629L17.244 9.13729C17.5507 9.20014 17.8683 9.18619 18.1684 9.09669C18.4684 9.00719 18.7418 8.84491 18.964 8.62429L21.1 6.47729C21.1247 6.44855 21.1402 6.4131 21.1446 6.37547C21.149 6.33784 21.142 6.29975 21.1246 6.26611C21.1072 6.23246 21.0801 6.20479 21.0469 6.18664C21.0136 6.1685 20.9757 6.16071 20.938 6.16429" stroke="white" stroke-width="1.5" stroke-linecap="round" stroke-linejoin="round"/>
</svg>
