<svg width="24" height="24" viewBox="0 0 24 24" fill="none" xmlns="http://www.w3.org/2000/svg">
<path fill-rule="evenodd" clip-rule="evenodd" d="M22 8.37702C21.9981 8.57258 21.9187 8.75941 21.7792 8.89647C21.6397 9.03353 21.4515 9.10962 21.256 9.10802H16.294C16.197 9.10894 16.1009 9.09077 16.011 9.05453C15.9211 9.01829 15.8392 8.9647 15.77 8.89682C15.7009 8.82894 15.6457 8.7481 15.6078 8.65891C15.5699 8.56972 15.5499 8.47394 15.549 8.37702C15.549 7.97302 15.883 7.64502 16.294 7.64502H21.256C21.666 7.64502 22 7.97302 22 8.37702ZM22 12.766C21.9981 12.9616 21.9187 13.1484 21.7792 13.2855C21.6397 13.4225 21.4515 13.4986 21.256 13.497H17.2859C17.0904 13.4986 16.9022 13.4225 16.7627 13.2855C16.6232 13.1484 16.5438 12.9616 16.542 12.766C16.542 12.362 16.8749 12.034 17.2859 12.034H21.256C21.666 12.034 22 12.362 22 12.766Z" fill="white"/>
<path d="M12.587 8.238L12.951 8.595C14.469 10.087 15.229 10.834 15.228 11.642C15.228 11.907 15.173 12.168 15.067 12.411C14.742 13.154 13.744 13.544 11.749 14.325L11.604 14.381C11.039 14.602 10.756 14.713 10.528 14.891C10.3556 15.0254 10.2069 15.1876 10.088 15.371C9.93098 15.611 9.84798 15.9 9.68098 16.475C9.42298 17.368 9.29498 17.815 9.01998 18.012C8.81452 18.1595 8.56099 18.2242 8.30998 18.193C7.97198 18.153 7.63798 17.824 6.96998 17.168L5.94398 16.158L3.27098 18.786C3.13015 18.9234 2.94121 19.0003 2.74448 19.0003C2.54775 19.0003 2.35881 18.9234 2.21798 18.786C2.14895 18.7186 2.09409 18.6382 2.05663 18.5493C2.01917 18.4604 1.99988 18.3649 1.99988 18.2685C1.99988 18.1721 2.01917 18.0766 2.05663 17.9877C2.09409 17.8988 2.14895 17.8184 2.21798 17.751L4.88098 15.114L3.86398 14.114C3.19698 13.459 2.86298 13.131 2.82098 12.798C2.78976 12.5506 2.85572 12.3007 3.00498 12.101C3.20698 11.831 3.66098 11.704 4.56898 11.451C5.15498 11.288 5.44798 11.206 5.69298 11.052C5.87869 10.9359 6.04364 10.7896 6.18098 10.619C6.36198 10.395 6.47498 10.117 6.69998 9.561L6.75698 9.419C7.55098 7.459 7.94798 6.478 8.70498 6.159C8.95198 6.054 9.21798 6 9.48598 6C10.31 6 11.069 6.745 12.587 8.238Z" fill="white"/>
<path fill-rule="evenodd" clip-rule="evenodd" d="M22 17.1549C21.9981 17.3504 21.9187 17.5372 21.7792 17.6743C21.6397 17.8114 21.4515 17.8874 21.256 17.8859H12.324C12.1284 17.8874 11.9402 17.8114 11.8007 17.6743C11.6612 17.5372 11.5818 17.3504 11.58 17.1549C11.58 16.7509 11.913 16.4229 12.324 16.4229H21.256C21.666 16.4229 22 16.7509 22 17.1549Z" fill="white"/>
</svg>
