<svg width="24" height="25" viewBox="0 0 24 25" fill="none" xmlns="http://www.w3.org/2000/svg">
<path d="M10.5 19.0703H21V20.5703H10.5V19.0703ZM5.3775 19.8203L3.4425 21.7553L4.5 22.8203L7.5 19.8203L4.5 16.8203L3.435 17.8778L5.3775 19.8203ZM10.5 11.5703H21V13.0703H10.5V11.5703ZM5.3775 12.3203L3.4425 14.2553L4.5 15.3203L7.5 12.3203L4.5 9.32031L3.435 10.3778L5.3775 12.3203ZM10.5 4.07031H21V5.57031H10.5V4.07031ZM5.3775 4.82031L3.4425 6.75531L4.5 7.82031L7.5 4.82031L4.5 1.82031L3.435 2.87781L5.3775 4.82031Z" fill="white"/>
</svg>
