<svg width="24" height="25" viewBox="0 0 24 25" fill="none" xmlns="http://www.w3.org/2000/svg">
<path d="M21 11.3203C21 16.8703 17.16 22.0603 12 23.3203C6.84 22.0603 3 16.8703 3 11.3203V5.32031L12 1.32031L21 5.32031V11.3203ZM12 21.3203C15.75 20.3203 19 15.8603 19 11.5403V6.62031L12 3.50031L5 6.62031V11.5403C5 15.8603 8.25 20.3203 12 21.3203ZM14.8 11.3203V9.82031C14.8 8.42031 13.4 7.32031 12 7.32031C10.6 7.32031 9.2 8.42031 9.2 9.82031V11.3203C8.6 11.3203 8 11.9203 8 12.5203V16.0203C8 16.7203 8.6 17.3203 9.2 17.3203H14.7C15.4 17.3203 16 16.7203 16 16.1203V12.6203C16 11.9203 15.4 11.3203 14.8 11.3203ZM13.5 11.3203H10.5V9.82031C10.5 9.02031 11.2 8.52031 12 8.52031C12.8 8.52031 13.5 9.02031 13.5 9.82031V11.3203Z" fill="white"/>
</svg>
