<svg width="24" height="25" viewBox="0 0 24 25" fill="none" xmlns="http://www.w3.org/2000/svg">
<path d="M5 5.5H11C11.55 5.5 12 5.05 12 4.5C12 3.95 11.55 3.5 11 3.5H5C3.9 3.5 3 4.4 3 5.5V19.5C3 20.6 3.9 21.5 5 21.5H11C11.55 21.5 12 21.05 12 20.5C12 19.95 11.55 19.5 11 19.5H5V5.5Z" fill="white"/>
<path d="M20.65 12.15L17.86 9.36004C17.7905 9.28859 17.7012 9.23952 17.6036 9.21911C17.506 9.19869 17.4045 9.20787 17.3121 9.24545C17.2198 9.28304 17.1408 9.34733 17.0851 9.43009C17.0295 9.51286 16.9999 9.61033 17 9.71004V11.5H10C9.45 11.5 9 11.95 9 12.5C9 13.05 9.45 13.5 10 13.5H17V15.29C17 15.74 17.54 15.96 17.85 15.64L20.64 12.85C20.84 12.66 20.84 12.34 20.65 12.15Z" fill="white"/>
</svg>
