<svg width="31" height="32" viewBox="0 0 31 32" fill="none" xmlns="http://www.w3.org/2000/svg">
<g clip-path="url(#clip0_104_8384)">
<path d="M8.59161 0.889648C7.4227 0.889648 6.30165 1.354 5.4751 2.18055C4.64855 3.0071 4.1842 4.12814 4.1842 5.29706V26.7045C4.1842 27.8734 4.64855 28.9944 5.4751 29.821C6.30165 30.6475 7.4227 31.1119 8.59161 31.1119C9.76053 31.1119 10.8816 30.6475 11.7081 29.821C12.5347 28.9944 12.999 27.8734 12.999 26.7045V5.29706C12.999 4.12814 12.5347 3.0071 11.7081 2.18055C10.8816 1.354 9.76053 0.889648 8.59161 0.889648Z" fill="url(#paint0_linear_104_8384)"/>
<path d="M22.4434 0.889648C21.2745 0.889648 20.1535 1.354 19.3269 2.18055C18.5004 3.0071 18.036 4.12814 18.036 5.29706V26.7045C18.036 27.8734 18.5004 28.9944 19.3269 29.821C20.1535 30.6475 21.2745 31.1119 22.4434 31.1119C23.6123 31.1119 24.7334 30.6475 25.5599 29.821C26.3865 28.9944 26.8508 27.8734 26.8508 26.7045V5.29706C26.8508 4.12814 26.3865 3.0071 25.5599 2.18055C24.7334 1.354 23.6123 0.889648 22.4434 0.889648Z" fill="url(#paint1_linear_104_8384)"/>
</g>
<defs>
<linearGradient id="paint0_linear_104_8384" x1="4.1842" y1="16.0008" x2="12.999" y2="16.0008" gradientUnits="userSpaceOnUse">
<stop stop-color="#0B3F7D"/>
<stop offset="1" stop-color="#1472E3"/>
</linearGradient>
<linearGradient id="paint1_linear_104_8384" x1="18.036" y1="16.0008" x2="26.8508" y2="16.0008" gradientUnits="userSpaceOnUse">
<stop stop-color="#0B3F7D"/>
<stop offset="1" stop-color="#1472E3"/>
</linearGradient>
<clipPath id="clip0_104_8384">
<rect x="0.406372" y="0.889648" width="30.2222" height="30.2222" rx="15.1111" fill="white"/>
</clipPath>
</defs>
</svg>
