<svg width="24" height="24" viewBox="0 0 24 24" fill="none" xmlns="http://www.w3.org/2000/svg">
<g clip-path="url(#clip0_104_8337)">
<path d="M20.492 7.96895L10.954 0.974946C10.209 0.429431 9.32755 0.100859 8.40727 0.0256494C7.48699 -0.0495601 6.56385 0.131531 5.74019 0.548851C4.91653 0.96617 4.22451 1.60342 3.74085 2.38995C3.25718 3.17649 3.00076 4.0816 3.00001 5.00495V18.9999C2.99857 19.9242 3.25365 20.8307 3.73686 21.6186C4.22006 22.4065 4.91243 23.0448 5.7369 23.4625C6.56137 23.8803 7.48559 24.061 8.40668 23.9846C9.32777 23.9083 10.2096 23.5778 10.954 23.0299L20.492 16.0359C21.1249 15.5715 21.6395 14.9646 21.9942 14.2643C22.3489 13.5639 22.5338 12.79 22.5338 12.0049C22.5338 11.2199 22.3489 10.4459 21.9942 9.74564C21.6395 9.04534 21.1249 8.4384 20.492 7.97395V7.96895Z" fill="url(#paint0_linear_104_8337)"/>
</g>
<defs>
<linearGradient id="paint0_linear_104_8337" x1="3" y1="12.0054" x2="22.5338" y2="12.0054" gradientUnits="userSpaceOnUse">
<stop stop-color="#0B3F7D"/>
<stop offset="1" stop-color="#1472E3"/>
</linearGradient>
<clipPath id="clip0_104_8337">
<rect width="24" height="24" fill="white"/>
</clipPath>
</defs>
</svg>
