<svg width="24" height="25" viewBox="0 0 24 25" fill="none" xmlns="http://www.w3.org/2000/svg">
<path d="M14.121 10.1993C18.417 14.4943 20.95 18.9273 19.778 20.0993C19.303 20.5733 18.292 20.4393 16.971 19.8263C15.3823 20.8767 13.5016 21.3966 11.5989 21.3115C9.69627 21.2263 7.86953 20.5404 6.38101 19.3523L6.34301 19.3913L4.92901 17.9773L4.96701 17.9373C3.77985 16.4488 3.09472 14.6225 3.00992 12.7205C2.92512 10.8185 3.44502 8.93847 4.49501 7.35026C3.88101 6.02826 3.74701 5.01726 4.22201 4.54226C5.35001 3.41426 9.49901 5.71926 13.639 9.72426L14.121 10.1993ZM12.707 11.6133C10.823 9.72926 8.87001 8.16226 7.23601 7.19026L7.05001 7.37026C5.85957 8.56044 5.13789 10.1398 5.01723 11.8188C4.89656 13.4978 5.38499 15.1641 6.39301 16.5123L8.23901 14.6663C8.12466 14.2408 8.15399 13.7895 8.32245 13.3824C8.4909 12.9753 8.78906 12.6352 9.17062 12.415C9.55218 12.1948 9.99578 12.1067 10.4325 12.1644C10.8693 12.2221 11.2748 12.4224 11.586 12.7343C11.8976 13.0455 12.0978 13.4508 12.1555 13.8874C12.2132 14.324 12.1252 14.7674 11.9051 15.1489C11.685 15.5304 11.3452 15.8285 10.9384 15.9971C10.5315 16.1657 10.0804 16.1953 9.65501 16.0813L7.80701 17.9273C9.15527 18.9356 10.8218 19.4241 12.501 19.3035C14.1803 19.1828 15.7598 18.461 16.95 17.2703L17.129 17.0823L17.076 16.9933C16.1 15.3783 14.556 13.4633 12.707 11.6133ZM19.778 4.54226C19.9769 4.74117 20.1316 4.97979 20.232 5.24255C20.3324 5.5053 20.3763 5.78628 20.3607 6.06714C20.3451 6.34799 20.2705 6.6224 20.1416 6.87245C20.0128 7.1225 19.8327 7.34256 19.613 7.51826C20.3897 8.75209 20.8558 10.1558 20.9712 11.6092C21.0867 13.0626 20.8482 14.5223 20.276 15.8633C19.8638 15.0658 19.4008 14.2955 18.89 13.5573C19.0904 12.446 19.0187 11.3027 18.6808 10.2252C18.3429 9.14773 17.7491 8.16814 16.95 7.37026C16.1521 6.5712 15.1725 5.97733 14.0951 5.63948C13.0176 5.30162 11.8743 5.22983 10.763 5.43026C10.0248 4.91944 9.25451 4.45649 8.45701 4.04426C9.79828 3.47178 11.2584 3.23304 12.7121 3.34851C14.1659 3.46398 15.5699 3.93022 16.804 4.70726C16.848 4.64993 16.8967 4.59493 16.95 4.54226C17.3251 4.16732 17.8337 3.95669 18.364 3.95669C18.8943 3.95669 19.403 4.16732 19.778 4.54226Z" fill="white"/>
</svg>
