<svg width="24" height="25" viewBox="0 0 24 25" fill="none" xmlns="http://www.w3.org/2000/svg">
<path d="M3.082 14.2653C2.553 13.3153 2.289 12.8393 2.289 12.3203C2.289 11.8013 2.553 11.3263 3.082 10.3763L4.43 7.95032L5.856 5.56932C6.415 4.63632 6.694 4.16932 7.143 3.90932C7.593 3.65032 8.136 3.64232 9.223 3.62432L12 3.58032L14.775 3.62432C15.863 3.64232 16.406 3.65032 16.855 3.91032C17.305 4.17032 17.585 4.63632 18.143 5.56932L19.57 7.95032L20.92 10.3763C21.448 11.3263 21.712 11.8013 21.712 12.3203C21.712 12.8393 21.448 13.3143 20.919 14.2643L19.57 16.6903L18.144 19.0713C17.585 20.0043 17.306 20.4713 16.857 20.7313C16.407 20.9903 15.864 20.9983 14.777 21.0163L12 21.0603L9.225 21.0163C8.137 20.9983 7.594 20.9903 7.145 20.7303C6.695 20.4703 6.415 20.0043 5.857 19.0713L4.43 16.6903L3.082 14.2653Z" stroke="white" stroke-width="2"/>
<path d="M12 15.3203C13.6569 15.3203 15 13.9772 15 12.3203C15 10.6635 13.6569 9.32031 12 9.32031C10.3431 9.32031 9 10.6635 9 12.3203C9 13.9772 10.3431 15.3203 12 15.3203Z" stroke="white" stroke-width="2"/>
</svg>
