<svg width="24" height="25" viewBox="0 0 24 25" fill="none" xmlns="http://www.w3.org/2000/svg">
<path d="M21.707 11.6133L13.707 3.61334C13.5671 3.47353 13.389 3.37833 13.195 3.33976C13.0011 3.30119 12.8 3.321 12.6173 3.39667C12.4346 3.47234 12.2785 3.60048 12.1686 3.76489C12.0587 3.92929 12 4.12259 12 4.32034V7.86534C9.26829 8.11814 6.72923 9.3812 4.87969 11.4074C3.03015 13.4335 2.00327 16.077 2 18.8203V20.3203C2.00016 20.5279 2.06491 20.7303 2.18527 20.8994C2.30564 21.0686 2.47565 21.196 2.67173 21.2642C2.8678 21.3323 3.08022 21.3377 3.27953 21.2797C3.47883 21.2217 3.65514 21.1031 3.784 20.9403C4.7637 19.7753 5.96576 18.8172 7.31994 18.122C8.67413 17.4268 10.1533 17.0084 11.671 16.8913C11.721 16.8853 11.846 16.8753 12 16.8653V20.3203C12 20.5181 12.0587 20.7114 12.1686 20.8758C12.2785 21.0402 12.4346 21.1684 12.6173 21.244C12.8 21.3197 13.0011 21.3395 13.195 21.3009C13.389 21.2624 13.5671 21.1672 13.707 21.0273L21.707 13.0273C21.8945 12.8398 21.9998 12.5855 21.9998 12.3203C21.9998 12.0552 21.8945 11.8009 21.707 11.6133ZM14 17.9063V15.8203C14 15.5551 13.8946 15.3008 13.7071 15.1132C13.5196 14.9257 13.2652 14.8203 13 14.8203C12.745 14.8203 11.704 14.8703 11.438 14.9053C8.74286 15.1537 6.17742 16.1776 4.052 17.8533C4.29324 15.6478 5.33954 13.6087 6.99055 12.1265C8.64157 10.6443 10.7813 9.82319 13 9.82034C13.2652 9.82034 13.5196 9.71499 13.7071 9.52745C13.8946 9.33991 14 9.08556 14 8.82034V6.73434L19.586 12.3203L14 17.9063Z" fill="white"/>
</svg>
