<svg width="24" height="25" viewBox="0 0 24 25" fill="none" xmlns="http://www.w3.org/2000/svg">
<g clip-path="url(#clip0_249_6382)">
<path d="M18.1266 22.987C17.8319 22.9875 17.5438 22.8992 17.3 22.7336L12.3266 19.4003C12.3021 19.3834 12.2731 19.3743 12.2433 19.3743C12.2135 19.3743 12.1845 19.3834 12.16 19.4003L7.18665 22.7336C6.93691 22.9004 6.64235 22.9872 6.3421 22.9826C6.04184 22.978 5.75009 22.8822 5.50558 22.7079C5.26108 22.5335 5.07539 22.2889 4.97317 22.0066C4.87096 21.7242 4.85706 21.4174 4.93331 21.127L6.56665 15.367C6.57437 15.338 6.57343 15.3074 6.56395 15.279C6.55448 15.2505 6.53687 15.2255 6.51331 15.207L1.80665 11.507C1.55887 11.3224 1.37508 11.0649 1.28104 10.7706C1.18699 10.4763 1.18742 10.1599 1.28225 9.86585C1.37709 9.57179 1.56157 9.31479 1.80984 9.13087C2.05811 8.94696 2.35772 8.84536 2.66665 8.84031L8.66665 8.61364C8.69615 8.61161 8.72443 8.60108 8.74809 8.58334C8.77174 8.5656 8.78976 8.54139 8.79998 8.51364L10.8666 2.89364C10.9708 2.60874 11.16 2.36272 11.4086 2.18891C11.6573 2.01509 11.9533 1.92188 12.2566 1.92188C12.56 1.92187 12.856 2.01509 13.1047 2.18891C13.3533 2.36272 13.5425 2.60874 13.6466 2.89364L15.7133 8.51364C15.7235 8.54139 15.7416 8.5656 15.7652 8.58334C15.7889 8.60108 15.8171 8.61161 15.8466 8.61364L21.8466 8.84031C22.1556 8.84536 22.4552 8.94696 22.7035 9.13087C22.9517 9.31479 23.1362 9.57179 23.231 9.86585C23.3259 10.1599 23.3263 10.4763 23.2323 10.7706C23.1382 11.0649 22.9544 11.3224 22.7066 11.507L18 15.207C17.9757 15.2249 17.9576 15.2499 17.948 15.2785C17.9385 15.3072 17.938 15.3381 17.9466 15.367L19.58 21.127C19.6373 21.3479 19.643 21.5791 19.5966 21.8026C19.5502 22.0261 19.453 22.2359 19.3124 22.4157C19.1719 22.5956 18.9918 22.7407 18.7862 22.8397C18.5806 22.9388 18.3549 22.9892 18.1266 22.987ZM12.2466 18.0403C12.5419 18.0489 12.8278 18.1465 13.0666 18.3203L18.04 21.6536C18.0652 21.6728 18.0959 21.6833 18.1276 21.6835C18.1592 21.6838 18.1901 21.6738 18.2156 21.655C18.2411 21.6363 18.2599 21.6098 18.2691 21.5795C18.2783 21.5492 18.2774 21.5167 18.2666 21.487L16.6333 15.727C16.5529 15.4444 16.5589 15.1443 16.6503 14.8651C16.7418 14.586 16.9146 14.3405 17.1466 14.1603L21.8533 10.4603C21.879 10.4423 21.8982 10.4165 21.9081 10.3867C21.9181 10.357 21.9182 10.3248 21.9085 10.295C21.8988 10.2651 21.8798 10.2392 21.8543 10.2209C21.8287 10.2027 21.798 10.1931 21.7666 10.1936L15.7666 9.96698C15.4729 9.95552 15.1891 9.85683 14.9517 9.68348C14.7142 9.51012 14.5337 9.26997 14.4333 8.99364L12.3666 3.37364C12.3573 3.3438 12.3387 3.31772 12.3135 3.2992C12.2884 3.28068 12.2579 3.27069 12.2266 3.27069C12.1954 3.27069 12.1649 3.28068 12.1398 3.2992C12.1146 3.31772 12.096 3.3438 12.0866 3.37364L10.04 8.98698C9.93955 9.2633 9.75909 9.50346 9.52163 9.67681C9.28416 9.85016 9.00044 9.94886 8.70665 9.96031L2.70665 10.187C2.67528 10.1865 2.64457 10.196 2.61904 10.2143C2.5935 10.2325 2.57449 10.2585 2.5648 10.2883C2.5551 10.3181 2.55522 10.3503 2.56516 10.3801C2.57509 10.4098 2.59431 10.4356 2.61998 10.4536L7.33331 14.1603C7.56461 14.3411 7.73691 14.5866 7.82832 14.8655C7.91973 15.1445 7.92611 15.4444 7.84665 15.727L6.21998 21.487C6.21027 21.5158 6.21023 21.547 6.21985 21.5759C6.22947 21.6048 6.24824 21.6297 6.27331 21.647C6.29746 21.6676 6.3282 21.679 6.35998 21.679C6.39176 21.679 6.4225 21.6676 6.44665 21.647L11.42 18.3136C11.6627 18.1517 11.9482 18.0658 12.24 18.067L12.2466 18.0403Z" fill="white"/>
</g>
<defs>
<clipPath id="clip0_249_6382">
<rect width="24" height="24" fill="white" transform="translate(0 0.320312)"/>
</clipPath>
</defs>
</svg>
