<svg width="21" height="20" viewBox="0 0 21 20" fill="none" xmlns="http://www.w3.org/2000/svg">
<path d="M1.59927 10.4953L4.56757 12.662L3.44029 16.1512C3.25811 16.6923 3.2558 17.2778 3.43371 17.8204C3.61161 18.363 3.96019 18.8336 4.4275 19.162C4.88679 19.501 5.44338 19.6826 6.01433 19.6797C6.58528 19.6769 7.14002 19.4897 7.5959 19.1462L10.4983 17.0112L13.4016 19.1437C13.8601 19.4807 14.4136 19.6638 14.9828 19.6665C15.5519 19.6693 16.1072 19.4916 16.569 19.1591C17.0307 18.8265 17.375 18.3562 17.5524 17.8157C17.7299 17.2752 17.7312 16.6925 17.5564 16.1512L16.4291 12.662L19.3974 10.4953C19.8553 10.1607 20.1956 9.69011 20.3699 9.15065C20.5441 8.61118 20.5434 8.03048 20.3677 7.49148C20.192 6.95248 19.8503 6.48276 19.3916 6.14941C18.9328 5.81606 18.3804 5.63613 17.8132 5.63532H14.167L13.0606 2.18866C12.8866 1.64612 12.5447 1.17283 12.0842 0.837044C11.6237 0.501254 11.0684 0.320313 10.4983 0.320312C9.9283 0.320312 9.37299 0.501254 8.91249 0.837044C8.45198 1.17283 8.11008 1.64612 7.93609 2.18866L6.82965 5.63532H3.18681C2.61962 5.63613 2.06719 5.81606 1.60843 6.14941C1.14967 6.48276 0.80804 6.95248 0.632344 7.49148C0.456648 8.03048 0.45587 8.61118 0.630122 9.15065C0.804374 9.69011 1.14474 10.1607 1.60261 10.4953H1.59927Z" fill="white"/>
</svg>
