<svg width="18" height="18" viewBox="0 0 18 18" fill="none" xmlns="http://www.w3.org/2000/svg">
<g opacity="0.7">
<path d="M9.375 16.5H7.125C4.65 16.5 3.4125 16.5 2.64375 15.69C1.875 14.8823 1.875 13.5795 1.875 10.9748V7.026C1.875 4.42125 1.875 3.1185 2.64375 2.30925C3.4125 1.5 4.65 1.5 7.125 1.5H9.375C11.85 1.5 13.0875 1.5 13.8563 2.31C14.625 3.11775 14.625 4.4205 14.625 7.02525V8.25M13.5 11.25V16.5M16.125 13.875H10.875" stroke="#D9D9D9" stroke-width="1.5" stroke-linecap="round" stroke-linejoin="round"/>
<path d="M5.25 1.5L5.3115 1.86975C5.4615 2.7675 5.5365 3.21675 5.8515 3.48375C6.165 3.75 6.62025 3.75 7.53075 3.75H8.9685C9.87825 3.75 10.3335 3.75 10.6485 3.48375C10.9635 3.21675 11.0385 2.7675 11.1877 1.86975L11.25 1.5M5.25 12H8.25M5.25 8.25H11.25" stroke="#D9D9D9" stroke-width="1.5" stroke-linecap="round" stroke-linejoin="round"/>
</g>
</svg>
