<svg width="18" height="18" viewBox="0 0 18 18" fill="none" xmlns="http://www.w3.org/2000/svg">
<path opacity="0.7" d="M4.59733 0C2.53154 1.00943 0.954965 2.65311 0.00465125 4.59373L2.25292 5.69678C2.96516 4.23971 4.14605 3.00331 5.69678 2.24587L4.59725 0H4.59733ZM13.4063 0.00585155L12.3033 2.25288C13.7604 2.9652 14.9967 4.14601 15.7542 5.69678L18.0001 4.59725C16.9906 2.53147 15.3469 0.956053 13.4062 0.00581406L13.4063 0.00585155ZM15.7518 12.2985C15.0398 13.7563 13.8564 14.9869 12.3056 15.7447L13.4098 18C15.4772 16.99 17.0514 15.3458 18.0001 13.4027L15.7518 12.2985ZM2.2506 12.3032L0 13.405C1.01007 15.4717 2.6548 17.0466 4.59733 17.9953L5.70035 15.7471C4.2432 15.0348 3.008 13.8538 2.2506 12.3032V12.3032Z" fill="#D9D9D9"/>
</svg>
